# xmcd
#
# Track frame offsets: 
#        189
#        17340
#        35449
#        58077
#        77752
#        93138
#        107442
#        118693
#        132639
#        145291
#        159542
#        173936
#        189116
#        208023
#        226108
#        241481
#
# Disc length: 3413 seconds
#
# Revision: 0
# Processed by: cddbd v1.5.2PL0 Copyright (c) Steve Scherf et al.
# Submitted via: ExactAudioCopy v0.99pb4
#
DISCID=cc0d5310
DTITLE=Mike Brant - Platinium Collection 3 CD'S - CD3
DYEAR=2008
DGENRE=Vocal
TTITLE0=Summertime (live)
TTITLE1=My Way (live)
TTITLE2=Holly holly
TTITLE3=My Prayer
TTITLE4=Liebe Will Mehr (Laisse moi t'aimer)
TTITLE5=Mein Herz ist immer noch bei dir (Parceque je t'aime plus que 
TTITLE5=moi)
TTITLE6=Das ist mein Lied
TTITLE7=Wer dich kennt, der muss dich lieben (C'est comme ça que je t'
TTITLE7=aime)
TTITLE8=Das war ein schöner Tag (C'est une belle fête)
TTITLE9=Eine liebe und zwei Freunde (Attendez)
TTITLE10=Au revoir (On se retrouvera par hasard)
TTITLE11=Ich will mehr (Dans les bras de la tendresse)
TTITLE12=Malaguena
TTITLE13=Cuore di bambina
TTITLE14=Vorrei vorrei (Laisse moi t'aimer)
TTITLE15=Erev Tov
EXTD=
EXTT0=
EXTT1=
EXTT2=
EXTT3=
EXTT4=
EXTT5=
EXTT6=
EXTT7=
EXTT8=
EXTT9=
EXTT10=
EXTT11=
EXTT12=
EXTT13=
EXTT14=
EXTT15=
PLAYORDER=
